%TF.GenerationSoftware,KiCad,Pcbnew,7.0.10-1.fc39*%
%TF.CreationDate,2024-02-18T17:05:32+01:00*%
%TF.ProjectId,BinaryClock,42696e61-7279-4436-9c6f-636b2e6b6963,rev?*%
%TF.SameCoordinates,Original*%
%TF.FileFunction,Copper,L1,Top*%
%TF.FilePolarity,Positive*%
%FSLAX46Y46*%
G04 Gerber Fmt 4.6, Leading zero omitted, Abs format (unit mm)*
G04 Created by KiCad (PCBNEW 7.0.10-1.fc39) date 2024-02-18 17:05:32*
%MOMM*%
%LPD*%
G01*
G04 APERTURE LIST*
%TA.AperFunction,ComponentPad*%
%ADD10R,1.700000X1.700000*%
%TD*%
%TA.AperFunction,ComponentPad*%
%ADD11O,1.700000X1.700000*%
%TD*%
%TA.AperFunction,ComponentPad*%
%ADD12O,1.070000X1.800000*%
%TD*%
%TA.AperFunction,ComponentPad*%
%ADD13R,1.070000X1.800000*%
%TD*%
%TA.AperFunction,ComponentPad*%
%ADD14R,1.600000X1.600000*%
%TD*%
%TA.AperFunction,ComponentPad*%
%ADD15O,1.600000X1.600000*%
%TD*%
%TA.AperFunction,ComponentPad*%
%ADD16C,2.000000*%
%TD*%
%TA.AperFunction,Conductor*%
%ADD17C,0.250000*%
%TD*%
G04 APERTURE END LIST*
D10*
%TO.P,J2,1,Pin_1*%
%TO.N,+5V*%
X142240000Y-92964000D03*
D11*
%TO.P,J2,2,Pin_2*%
%TO.N,unconnected-(J2-Pin_2-Pad2)*%
X142240000Y-90424000D03*
%TO.P,J2,3,Pin_3*%
%TO.N,unconnected-(J2-Pin_3-Pad3)*%
X142240000Y-87884000D03*
%TO.P,J2,4,Pin_4*%
%TO.N,unconnected-(J2-Pin_4-Pad4)*%
X142240000Y-85344000D03*
%TO.P,J2,5,Pin_5*%
%TO.N,GND*%
X142240000Y-82804000D03*
%TD*%
D12*
%TO.P,D7,1,DOUT*%
%TO.N,Net-(D7-DOUT)*%
X127254000Y-48006000D03*
D13*
%TO.P,D7,2,DIN*%
%TO.N,Net-(D6-DOUT)*%
X123444000Y-48006000D03*
D12*
%TO.P,D7,3,VCC*%
%TO.N,+5V*%
X125984000Y-48006000D03*
%TO.P,D7,6,VSS*%
%TO.N,GND*%
X124714000Y-48006000D03*
%TD*%
D14*
%TO.P,A1,1,D1/TX*%
%TO.N,unconnected-(A1-D1{slash}TX-Pad1)*%
X117856000Y-77978000D03*
D15*
%TO.P,A1,2,D0/RX*%
%TO.N,unconnected-(A1-D0{slash}RX-Pad2)*%
X115316000Y-77978000D03*
%TO.P,A1,3,~{RESET}*%
%TO.N,unconnected-(A1-~{RESET}-Pad3)*%
X112776000Y-77978000D03*
%TO.P,A1,4,GND*%
%TO.N,unconnected-(A1-GND-Pad4)*%
X110236000Y-77978000D03*
%TO.P,A1,5,D2*%
%TO.N,unconnected-(A1-D2-Pad5)*%
X107696000Y-77978000D03*
%TO.P,A1,6,D3*%
%TO.N,unconnected-(A1-D3-Pad6)*%
X105156000Y-77978000D03*
%TO.P,A1,7,D4*%
%TO.N,unconnected-(A1-D4-Pad7)*%
X102616000Y-77978000D03*
%TO.P,A1,8,D5*%
%TO.N,unconnected-(A1-D5-Pad8)*%
X100076000Y-77978000D03*
%TO.P,A1,9,D6*%
%TO.N,Net-(A1-D6)*%
X97536000Y-77978000D03*
%TO.P,A1,10,D7*%
%TO.N,Net-(A1-D7)*%
X94996000Y-77978000D03*
%TO.P,A1,11,D8*%
%TO.N,unconnected-(A1-D8-Pad11)*%
X92456000Y-77978000D03*
%TO.P,A1,12,D9*%
%TO.N,unconnected-(A1-D9-Pad12)*%
X89916000Y-77978000D03*
%TO.P,A1,13,D10*%
%TO.N,unconnected-(A1-D10-Pad13)*%
X87376000Y-77978000D03*
%TO.P,A1,14,D11*%
%TO.N,unconnected-(A1-D11-Pad14)*%
X84836000Y-77978000D03*
%TO.P,A1,15,D12*%
%TO.N,unconnected-(A1-D12-Pad15)*%
X82296000Y-77978000D03*
%TO.P,A1,16,D13*%
%TO.N,unconnected-(A1-D13-Pad16)*%
X82296000Y-93218000D03*
%TO.P,A1,17,3V3*%
%TO.N,unconnected-(A1-3V3-Pad17)*%
X84836000Y-93218000D03*
%TO.P,A1,18,AREF*%
%TO.N,unconnected-(A1-AREF-Pad18)*%
X87376000Y-93218000D03*
%TO.P,A1,19,A0*%
%TO.N,unconnected-(A1-A0-Pad19)*%
X89916000Y-93218000D03*
%TO.P,A1,20,A1*%
%TO.N,unconnected-(A1-A1-Pad20)*%
X92456000Y-93218000D03*
%TO.P,A1,21,A2*%
%TO.N,unconnected-(A1-A2-Pad21)*%
X94996000Y-93218000D03*
%TO.P,A1,22,A3*%
%TO.N,unconnected-(A1-A3-Pad22)*%
X97536000Y-93218000D03*
%TO.P,A1,23,A4*%
%TO.N,Net-(A1-A4)*%
X100076000Y-93218000D03*
%TO.P,A1,24,A5*%
%TO.N,Net-(A1-A5)*%
X102616000Y-93218000D03*
%TO.P,A1,25,A6*%
%TO.N,unconnected-(A1-A6-Pad25)*%
X105156000Y-93218000D03*
%TO.P,A1,26,A7*%
%TO.N,unconnected-(A1-A7-Pad26)*%
X107696000Y-93218000D03*
%TO.P,A1,27,+5V*%
%TO.N,unconnected-(A1-+5V-Pad27)*%
X110236000Y-93218000D03*
%TO.P,A1,28,~{RESET}*%
%TO.N,unconnected-(A1-~{RESET}-Pad28)*%
X112776000Y-93218000D03*
%TO.P,A1,29,GND*%
%TO.N,GND*%
X115316000Y-93218000D03*
%TO.P,A1,30,VIN*%
%TO.N,+5V*%
X117856000Y-93218000D03*
%TD*%
D12*
%TO.P,D17,1,DOUT*%
%TO.N,Net-(D17-DOUT)*%
X92349000Y-48006000D03*
D13*
%TO.P,D17,2,DIN*%
%TO.N,Net-(D16-DOUT)*%
X88539000Y-48006000D03*
D12*
%TO.P,D17,3,VCC*%
%TO.N,+5V*%
X91079000Y-48006000D03*
%TO.P,D17,6,VSS*%
%TO.N,GND*%
X89809000Y-48006000D03*
%TD*%
%TO.P,D8,1,DOUT*%
%TO.N,Net-(D8-DOUT)*%
X114554000Y-70358000D03*
D13*
%TO.P,D8,2,DIN*%
%TO.N,Net-(D7-DOUT)*%
X110744000Y-70358000D03*
D12*
%TO.P,D8,3,VCC*%
%TO.N,+5V*%
X113284000Y-70358000D03*
%TO.P,D8,6,VSS*%
%TO.N,GND*%
X112014000Y-70358000D03*
%TD*%
%TO.P,D1,1,DOUT*%
%TO.N,Net-(D1-DOUT)*%
X136759000Y-70358000D03*
D13*
%TO.P,D1,2,DIN*%
%TO.N,Net-(A1-D6)*%
X132949000Y-70358000D03*
D12*
%TO.P,D1,3,VCC*%
%TO.N,+5V*%
X135489000Y-70358000D03*
%TO.P,D1,6,VSS*%
%TO.N,GND*%
X134219000Y-70358000D03*
%TD*%
%TO.P,D18,1,DOUT*%
%TO.N,Net-(D18-DOUT)*%
X92349000Y-36830000D03*
D13*
%TO.P,D18,2,DIN*%
%TO.N,Net-(D17-DOUT)*%
X88539000Y-36830000D03*
D12*
%TO.P,D18,3,VCC*%
%TO.N,+5V*%
X91079000Y-36830000D03*
%TO.P,D18,6,VSS*%
%TO.N,GND*%
X89809000Y-36830000D03*
%TD*%
D16*
%TO.P,SW1,1,1*%
%TO.N,GND*%
X143510000Y-68326000D03*
X150010000Y-68326000D03*
%TO.P,SW1,2,2*%
%TO.N,Net-(A1-D7)*%
X143510000Y-72826000D03*
X150010000Y-72826000D03*
%TD*%
D12*
%TO.P,D14,1,DOUT*%
%TO.N,Net-(D14-DOUT)*%
X105049000Y-48006000D03*
D13*
%TO.P,D14,2,DIN*%
%TO.N,Net-(D13-DOUT)*%
X101239000Y-48006000D03*
D12*
%TO.P,D14,3,VCC*%
%TO.N,+5V*%
X103779000Y-48006000D03*
%TO.P,D14,6,VSS*%
%TO.N,GND*%
X102509000Y-48006000D03*
%TD*%
%TO.P,D2,1,DOUT*%
%TO.N,Net-(D2-DOUT)*%
X136759000Y-59182000D03*
D13*
%TO.P,D2,2,DIN*%
%TO.N,Net-(D1-DOUT)*%
X132949000Y-59182000D03*
D12*
%TO.P,D2,3,VCC*%
%TO.N,+5V*%
X135489000Y-59182000D03*
%TO.P,D2,6,VSS*%
%TO.N,GND*%
X134219000Y-59182000D03*
%TD*%
%TO.P,D6,1,DOUT*%
%TO.N,Net-(D6-DOUT)*%
X127254000Y-59182000D03*
D13*
%TO.P,D6,2,DIN*%
%TO.N,Net-(D5-DOUT)*%
X123444000Y-59182000D03*
D12*
%TO.P,D6,3,VCC*%
%TO.N,+5V*%
X125984000Y-59182000D03*
%TO.P,D6,6,VSS*%
%TO.N,GND*%
X124714000Y-59182000D03*
%TD*%
%TO.P,D3,1,DOUT*%
%TO.N,Net-(D3-DOUT)*%
X136759000Y-48006000D03*
D13*
%TO.P,D3,2,DIN*%
%TO.N,Net-(D2-DOUT)*%
X132949000Y-48006000D03*
D12*
%TO.P,D3,3,VCC*%
%TO.N,+5V*%
X135489000Y-48006000D03*
%TO.P,D3,6,VSS*%
%TO.N,GND*%
X134219000Y-48006000D03*
%TD*%
%TO.P,D4,1,DOUT*%
%TO.N,Net-(D4-DOUT)*%
X136759000Y-36830000D03*
D13*
%TO.P,D4,2,DIN*%
%TO.N,Net-(D3-DOUT)*%
X132949000Y-36830000D03*
D12*
%TO.P,D4,3,VCC*%
%TO.N,+5V*%
X135489000Y-36830000D03*
%TO.P,D4,6,VSS*%
%TO.N,GND*%
X134219000Y-36830000D03*
%TD*%
%TO.P,D11,1,DOUT*%
%TO.N,Net-(D11-DOUT)*%
X114554000Y-36830000D03*
D13*
%TO.P,D11,2,DIN*%
%TO.N,Net-(D10-DOUT)*%
X110744000Y-36830000D03*
D12*
%TO.P,D11,3,VCC*%
%TO.N,+5V*%
X113284000Y-36830000D03*
%TO.P,D11,6,VSS*%
%TO.N,GND*%
X112014000Y-36830000D03*
%TD*%
%TO.P,D16,1,DOUT*%
%TO.N,Net-(D16-DOUT)*%
X92352000Y-59182000D03*
D13*
%TO.P,D16,2,DIN*%
%TO.N,Net-(D15-DOUT)*%
X88542000Y-59182000D03*
D12*
%TO.P,D16,3,VCC*%
%TO.N,+5V*%
X91082000Y-59182000D03*
%TO.P,D16,6,VSS*%
%TO.N,GND*%
X89812000Y-59182000D03*
%TD*%
%TO.P,D20,1,DOUT*%
%TO.N,unconnected-(D20-DOUT-Pad1)*%
X82852000Y-59182000D03*
D13*
%TO.P,D20,2,DIN*%
%TO.N,Net-(D19-DOUT)*%
X79042000Y-59182000D03*
D12*
%TO.P,D20,3,VCC*%
%TO.N,+5V*%
X81582000Y-59182000D03*
%TO.P,D20,6,VSS*%
%TO.N,GND*%
X80312000Y-59182000D03*
%TD*%
%TO.P,D12,1,DOUT*%
%TO.N,Net-(D12-DOUT)*%
X105052000Y-70358000D03*
D13*
%TO.P,D12,2,DIN*%
%TO.N,Net-(D11-DOUT)*%
X101242000Y-70358000D03*
D12*
%TO.P,D12,3,VCC*%
%TO.N,+5V*%
X103782000Y-70358000D03*
%TO.P,D12,6,VSS*%
%TO.N,GND*%
X102512000Y-70358000D03*
%TD*%
%TO.P,D5,1,DOUT*%
%TO.N,Net-(D5-DOUT)*%
X127254000Y-70358000D03*
D13*
%TO.P,D5,2,DIN*%
%TO.N,Net-(D4-DOUT)*%
X123444000Y-70358000D03*
D12*
%TO.P,D5,3,VCC*%
%TO.N,+5V*%
X125984000Y-70358000D03*
%TO.P,D5,6,VSS*%
%TO.N,GND*%
X124714000Y-70358000D03*
%TD*%
%TO.P,D15,1,DOUT*%
%TO.N,Net-(D15-DOUT)*%
X92352000Y-70358000D03*
D13*
%TO.P,D15,2,DIN*%
%TO.N,Net-(D14-DOUT)*%
X88542000Y-70358000D03*
D12*
%TO.P,D15,3,VCC*%
%TO.N,+5V*%
X91082000Y-70358000D03*
%TO.P,D15,6,VSS*%
%TO.N,GND*%
X89812000Y-70358000D03*
%TD*%
%TO.P,D13,1,DOUT*%
%TO.N,Net-(D13-DOUT)*%
X105052000Y-59182000D03*
D13*
%TO.P,D13,2,DIN*%
%TO.N,Net-(D12-DOUT)*%
X101242000Y-59182000D03*
D12*
%TO.P,D13,3,VCC*%
%TO.N,+5V*%
X103782000Y-59182000D03*
%TO.P,D13,6,VSS*%
%TO.N,GND*%
X102512000Y-59182000D03*
%TD*%
%TO.P,D9,1,DOUT*%
%TO.N,Net-(D10-DIN)*%
X114554000Y-59182000D03*
D13*
%TO.P,D9,2,DIN*%
%TO.N,Net-(D8-DOUT)*%
X110744000Y-59182000D03*
D12*
%TO.P,D9,3,VCC*%
%TO.N,+5V*%
X113284000Y-59182000D03*
%TO.P,D9,6,VSS*%
%TO.N,GND*%
X112014000Y-59182000D03*
%TD*%
D10*
%TO.P,J1,1,Pin_1*%
%TO.N,+5V*%
X125222000Y-92964000D03*
D11*
%TO.P,J1,2,Pin_2*%
%TO.N,Net-(A1-A4)*%
X125222000Y-90424000D03*
%TO.P,J1,3,Pin_3*%
%TO.N,Net-(A1-A5)*%
X125222000Y-87884000D03*
%TO.P,J1,4,Pin_4*%
%TO.N,unconnected-(J1-Pin_4-Pad4)*%
X125222000Y-85344000D03*
%TO.P,J1,5,Pin_5*%
%TO.N,GND*%
X125222000Y-82804000D03*
%TD*%
D12*
%TO.P,D10,1,DOUT*%
%TO.N,Net-(D10-DOUT)*%
X114554000Y-48006000D03*
D13*
%TO.P,D10,2,DIN*%
%TO.N,Net-(D10-DIN)*%
X110744000Y-48006000D03*
D12*
%TO.P,D10,3,VCC*%
%TO.N,+5V*%
X113284000Y-48006000D03*
%TO.P,D10,6,VSS*%
%TO.N,GND*%
X112014000Y-48006000D03*
%TD*%
%TO.P,D19,1,DOUT*%
%TO.N,Net-(D19-DOUT)*%
X82852000Y-70358000D03*
D13*
%TO.P,D19,2,DIN*%
%TO.N,Net-(D18-DOUT)*%
X79042000Y-70358000D03*
D12*
%TO.P,D19,3,VCC*%
%TO.N,+5V*%
X81582000Y-70358000D03*
%TO.P,D19,6,VSS*%
%TO.N,GND*%
X80312000Y-70358000D03*
%TD*%
D17*
%TO.N,Net-(A1-A4)*%
X100076000Y-93218000D02*
X102108000Y-95250000D01*
X120142000Y-95250000D02*
X124968000Y-90424000D01*
X102108000Y-95250000D02*
X120142000Y-95250000D01*
X124968000Y-90424000D02*
X125222000Y-90424000D01*
%TO.N,Net-(A1-A5)*%
X102616000Y-93218000D02*
X107950000Y-87884000D01*
X107950000Y-87884000D02*
X125222000Y-87884000D01*
%TO.N,GND*%
X143510000Y-68326000D02*
X150010000Y-68326000D01*
X142240000Y-82804000D02*
X151335000Y-73709000D01*
X151335000Y-73709000D02*
X151335000Y-69651000D01*
X151335000Y-69651000D02*
X150010000Y-68326000D01*
X134219000Y-70669224D02*
X134219000Y-70358000D01*
X134513000Y-48306571D02*
X134513000Y-47941571D01*
X124861000Y-70211000D02*
X124861000Y-70866000D01*
%TO.N,Net-(D1-DOUT)*%
X136759000Y-69993000D02*
X132949000Y-66183000D01*
X133350000Y-58810571D02*
X133350000Y-59625571D01*
X132949000Y-66183000D02*
X132949000Y-59182000D01*
X136759000Y-70358000D02*
X136759000Y-69993000D01*
%TO.N,+5V*%
X135890000Y-70866000D02*
X135890000Y-70501000D01*
%TO.N,GND*%
X142386000Y-82696000D02*
X142386000Y-82804000D01*
%TO.N,+5V*%
X135783000Y-47941571D02*
X135783000Y-47576571D01*
X135890000Y-59625571D02*
X135890000Y-59260571D01*
%TO.N,Net-(D2-DOUT)*%
X132949000Y-55007000D02*
X132949000Y-48006000D01*
X136759000Y-59182000D02*
X136759000Y-58817000D01*
X136759000Y-58817000D02*
X132949000Y-55007000D01*
%TO.N,Net-(D4-DOUT)*%
X123444000Y-70723000D02*
X123444000Y-70358000D01*
X132080000Y-34036000D02*
X130048000Y-36068000D01*
X127762000Y-72136000D02*
X124857000Y-72136000D01*
X134330000Y-34036000D02*
X132080000Y-34036000D01*
X136759000Y-36465000D02*
X134330000Y-34036000D01*
X130048000Y-69850000D02*
X127762000Y-72136000D01*
X124857000Y-72136000D02*
X123444000Y-70723000D01*
X136759000Y-36830000D02*
X136759000Y-36465000D01*
X130048000Y-36068000D02*
X130048000Y-69850000D01*
%TO.N,Net-(D3-DOUT)*%
X132949000Y-43831000D02*
X132949000Y-36830000D01*
X136759000Y-47641000D02*
X132949000Y-43831000D01*
X132481000Y-36511571D02*
X132481000Y-36146571D01*
X136759000Y-48006000D02*
X136759000Y-47641000D01*
%TO.N,Net-(D5-DOUT)*%
X127254000Y-70358000D02*
X127254000Y-69993000D01*
X123444000Y-66183000D02*
X123444000Y-59182000D01*
X127254000Y-69993000D02*
X123444000Y-66183000D01*
%TO.N,Net-(D6-DOUT)*%
X127254000Y-58817000D02*
X123444000Y-55007000D01*
X127254000Y-59182000D02*
X127254000Y-58817000D01*
X123444000Y-55007000D02*
X123444000Y-48006000D01*
%TO.N,Net-(D7-DOUT)*%
X127254000Y-48006000D02*
X127254000Y-47641000D01*
X116586000Y-72898000D02*
X112919000Y-72898000D01*
X127254000Y-47694776D02*
X125279224Y-45720000D01*
X121412000Y-46736000D02*
X121412000Y-68072000D01*
X122428000Y-45720000D02*
X121412000Y-46736000D01*
X121412000Y-68072000D02*
X116586000Y-72898000D01*
X110744000Y-70723000D02*
X110744000Y-70358000D01*
X127254000Y-48006000D02*
X127254000Y-47694776D01*
X112919000Y-72898000D02*
X110744000Y-70723000D01*
X125279224Y-45720000D02*
X122428000Y-45720000D01*
%TO.N,Net-(D10-DOUT)*%
X110744000Y-43831000D02*
X110744000Y-36830000D01*
X114554000Y-48006000D02*
X114554000Y-47641000D01*
X114554000Y-47641000D02*
X110744000Y-43831000D01*
%TO.N,Net-(D10-DIN)*%
X114554000Y-59182000D02*
X114554000Y-58817000D01*
X114554000Y-58817000D02*
X110744000Y-55007000D01*
X110744000Y-55007000D02*
X110744000Y-48006000D01*
%TO.N,Net-(D8-DOUT)*%
X114554000Y-69993000D02*
X110744000Y-66183000D01*
X110744000Y-66183000D02*
X110744000Y-59182000D01*
X114554000Y-70358000D02*
X114554000Y-69993000D01*
%TO.N,Net-(D11-DOUT)*%
X114554000Y-36830000D02*
X114554000Y-36465000D01*
X105410000Y-72136000D02*
X102616000Y-72136000D01*
X114554000Y-36465000D02*
X112379000Y-34290000D01*
X112379000Y-34290000D02*
X109982000Y-34290000D01*
X102616000Y-72136000D02*
X101242000Y-70762000D01*
X109982000Y-34290000D02*
X108458000Y-35814000D01*
X108458000Y-69088000D02*
X105410000Y-72136000D01*
X101242000Y-70762000D02*
X101242000Y-70358000D01*
X108458000Y-35814000D02*
X108458000Y-69088000D01*
%TO.N,Net-(D14-DOUT)*%
X90717000Y-72898000D02*
X88542000Y-70723000D01*
X98298000Y-69088000D02*
X94488000Y-72898000D01*
X98298000Y-47498000D02*
X98298000Y-69088000D01*
X105049000Y-48006000D02*
X105049000Y-47641000D01*
X100330000Y-45466000D02*
X98298000Y-47498000D01*
X105049000Y-47641000D02*
X102874000Y-45466000D01*
X88542000Y-70723000D02*
X88542000Y-70358000D01*
X102874000Y-45466000D02*
X100330000Y-45466000D01*
X94488000Y-72898000D02*
X90717000Y-72898000D01*
%TO.N,Net-(D15-DOUT)*%
X92352000Y-70358000D02*
X92352000Y-69993000D01*
X92352000Y-69993000D02*
X88542000Y-66183000D01*
X88542000Y-66183000D02*
X88542000Y-59182000D01*
%TO.N,Net-(D16-DOUT)*%
X88539000Y-55004000D02*
X88539000Y-48006000D01*
X92352000Y-58817000D02*
X88539000Y-55004000D01*
X92352000Y-59182000D02*
X92352000Y-58817000D01*
%TO.N,Net-(D17-DOUT)*%
X88539000Y-43831000D02*
X88539000Y-36830000D01*
X92349000Y-47641000D02*
X88539000Y-43831000D01*
X92349000Y-48006000D02*
X92349000Y-47641000D01*
%TO.N,Net-(D18-DOUT)*%
X81524776Y-73152000D02*
X79042000Y-70669224D01*
X86106000Y-70866000D02*
X83820000Y-73152000D01*
X79042000Y-70669224D02*
X79042000Y-70358000D01*
X90174000Y-34290000D02*
X87122000Y-34290000D01*
X86106000Y-35306000D02*
X86106000Y-70866000D01*
X92349000Y-36465000D02*
X90174000Y-34290000D01*
X83820000Y-73152000D02*
X81524776Y-73152000D01*
X87122000Y-34290000D02*
X86106000Y-35306000D01*
X92349000Y-36830000D02*
X92349000Y-36465000D01*
%TO.N,Net-(D19-DOUT)*%
X82852000Y-70358000D02*
X82852000Y-69993000D01*
X79042000Y-66183000D02*
X79042000Y-59182000D01*
X82852000Y-69993000D02*
X79042000Y-66183000D01*
%TO.N,Net-(D12-DOUT)*%
X105052000Y-70358000D02*
X105052000Y-69993000D01*
X105052000Y-69993000D02*
X101242000Y-66183000D01*
X101242000Y-66183000D02*
X101242000Y-59182000D01*
%TO.N,Net-(D13-DOUT)*%
X105052000Y-59182000D02*
X105052000Y-58817000D01*
X105052000Y-58817000D02*
X101239000Y-55004000D01*
X101239000Y-55004000D02*
X101239000Y-48006000D01*
%TO.N,Net-(A1-D7)*%
X94996000Y-77978000D02*
X96121000Y-79103000D01*
X96121000Y-79103000D02*
X137233000Y-79103000D01*
X143510000Y-72826000D02*
X150010000Y-72826000D01*
X137233000Y-79103000D02*
X143510000Y-72826000D01*
%TO.N,Net-(A1-D6)*%
X99568000Y-75946000D02*
X134366000Y-75946000D01*
X132949000Y-71227000D02*
X132949000Y-70358000D01*
X97536000Y-77978000D02*
X99568000Y-75946000D01*
X135636000Y-73914000D02*
X132949000Y-71227000D01*
X135636000Y-74676000D02*
X135636000Y-73914000D01*
X134366000Y-75946000D02*
X135636000Y-74676000D01*
%TD*%
M02*
