%TF.GenerationSoftware,KiCad,Pcbnew,7.0.10-1.fc39*%
%TF.CreationDate,2024-02-18T17:05:32+01:00*%
%TF.ProjectId,BinaryClock,42696e61-7279-4436-9c6f-636b2e6b6963,rev?*%
%TF.SameCoordinates,Original*%
%TF.FileFunction,Copper,L2,Bot*%
%TF.FilePolarity,Positive*%
%FSLAX46Y46*%
G04 Gerber Fmt 4.6, Leading zero omitted, Abs format (unit mm)*
G04 Created by KiCad (PCBNEW 7.0.10-1.fc39) date 2024-02-18 17:05:32*
%MOMM*%
%LPD*%
G01*
G04 APERTURE LIST*
%TA.AperFunction,ComponentPad*%
%ADD10R,1.700000X1.700000*%
%TD*%
%TA.AperFunction,ComponentPad*%
%ADD11O,1.700000X1.700000*%
%TD*%
%TA.AperFunction,ComponentPad*%
%ADD12O,1.070000X1.800000*%
%TD*%
%TA.AperFunction,ComponentPad*%
%ADD13R,1.070000X1.800000*%
%TD*%
%TA.AperFunction,ComponentPad*%
%ADD14R,1.600000X1.600000*%
%TD*%
%TA.AperFunction,ComponentPad*%
%ADD15O,1.600000X1.600000*%
%TD*%
%TA.AperFunction,ComponentPad*%
%ADD16C,2.000000*%
%TD*%
%TA.AperFunction,Conductor*%
%ADD17C,0.250000*%
%TD*%
G04 APERTURE END LIST*
D10*
%TO.P,J2,1,Pin_1*%
%TO.N,+5V*%
X142240000Y-92964000D03*
D11*
%TO.P,J2,2,Pin_2*%
%TO.N,unconnected-(J2-Pin_2-Pad2)*%
X142240000Y-90424000D03*
%TO.P,J2,3,Pin_3*%
%TO.N,unconnected-(J2-Pin_3-Pad3)*%
X142240000Y-87884000D03*
%TO.P,J2,4,Pin_4*%
%TO.N,unconnected-(J2-Pin_4-Pad4)*%
X142240000Y-85344000D03*
%TO.P,J2,5,Pin_5*%
%TO.N,GND*%
X142240000Y-82804000D03*
%TD*%
D12*
%TO.P,D7,1,DOUT*%
%TO.N,Net-(D7-DOUT)*%
X127254000Y-48006000D03*
D13*
%TO.P,D7,2,DIN*%
%TO.N,Net-(D6-DOUT)*%
X123444000Y-48006000D03*
D12*
%TO.P,D7,3,VCC*%
%TO.N,+5V*%
X125984000Y-48006000D03*
%TO.P,D7,6,VSS*%
%TO.N,GND*%
X124714000Y-48006000D03*
%TD*%
D14*
%TO.P,A1,1,D1/TX*%
%TO.N,unconnected-(A1-D1{slash}TX-Pad1)*%
X117856000Y-77978000D03*
D15*
%TO.P,A1,2,D0/RX*%
%TO.N,unconnected-(A1-D0{slash}RX-Pad2)*%
X115316000Y-77978000D03*
%TO.P,A1,3,~{RESET}*%
%TO.N,unconnected-(A1-~{RESET}-Pad3)*%
X112776000Y-77978000D03*
%TO.P,A1,4,GND*%
%TO.N,unconnected-(A1-GND-Pad4)*%
X110236000Y-77978000D03*
%TO.P,A1,5,D2*%
%TO.N,unconnected-(A1-D2-Pad5)*%
X107696000Y-77978000D03*
%TO.P,A1,6,D3*%
%TO.N,unconnected-(A1-D3-Pad6)*%
X105156000Y-77978000D03*
%TO.P,A1,7,D4*%
%TO.N,unconnected-(A1-D4-Pad7)*%
X102616000Y-77978000D03*
%TO.P,A1,8,D5*%
%TO.N,unconnected-(A1-D5-Pad8)*%
X100076000Y-77978000D03*
%TO.P,A1,9,D6*%
%TO.N,Net-(A1-D6)*%
X97536000Y-77978000D03*
%TO.P,A1,10,D7*%
%TO.N,Net-(A1-D7)*%
X94996000Y-77978000D03*
%TO.P,A1,11,D8*%
%TO.N,unconnected-(A1-D8-Pad11)*%
X92456000Y-77978000D03*
%TO.P,A1,12,D9*%
%TO.N,unconnected-(A1-D9-Pad12)*%
X89916000Y-77978000D03*
%TO.P,A1,13,D10*%
%TO.N,unconnected-(A1-D10-Pad13)*%
X87376000Y-77978000D03*
%TO.P,A1,14,D11*%
%TO.N,unconnected-(A1-D11-Pad14)*%
X84836000Y-77978000D03*
%TO.P,A1,15,D12*%
%TO.N,unconnected-(A1-D12-Pad15)*%
X82296000Y-77978000D03*
%TO.P,A1,16,D13*%
%TO.N,unconnected-(A1-D13-Pad16)*%
X82296000Y-93218000D03*
%TO.P,A1,17,3V3*%
%TO.N,unconnected-(A1-3V3-Pad17)*%
X84836000Y-93218000D03*
%TO.P,A1,18,AREF*%
%TO.N,unconnected-(A1-AREF-Pad18)*%
X87376000Y-93218000D03*
%TO.P,A1,19,A0*%
%TO.N,unconnected-(A1-A0-Pad19)*%
X89916000Y-93218000D03*
%TO.P,A1,20,A1*%
%TO.N,unconnected-(A1-A1-Pad20)*%
X92456000Y-93218000D03*
%TO.P,A1,21,A2*%
%TO.N,unconnected-(A1-A2-Pad21)*%
X94996000Y-93218000D03*
%TO.P,A1,22,A3*%
%TO.N,unconnected-(A1-A3-Pad22)*%
X97536000Y-93218000D03*
%TO.P,A1,23,A4*%
%TO.N,Net-(A1-A4)*%
X100076000Y-93218000D03*
%TO.P,A1,24,A5*%
%TO.N,Net-(A1-A5)*%
X102616000Y-93218000D03*
%TO.P,A1,25,A6*%
%TO.N,unconnected-(A1-A6-Pad25)*%
X105156000Y-93218000D03*
%TO.P,A1,26,A7*%
%TO.N,unconnected-(A1-A7-Pad26)*%
X107696000Y-93218000D03*
%TO.P,A1,27,+5V*%
%TO.N,unconnected-(A1-+5V-Pad27)*%
X110236000Y-93218000D03*
%TO.P,A1,28,~{RESET}*%
%TO.N,unconnected-(A1-~{RESET}-Pad28)*%
X112776000Y-93218000D03*
%TO.P,A1,29,GND*%
%TO.N,GND*%
X115316000Y-93218000D03*
%TO.P,A1,30,VIN*%
%TO.N,+5V*%
X117856000Y-93218000D03*
%TD*%
D12*
%TO.P,D17,1,DOUT*%
%TO.N,Net-(D17-DOUT)*%
X92349000Y-48006000D03*
D13*
%TO.P,D17,2,DIN*%
%TO.N,Net-(D16-DOUT)*%
X88539000Y-48006000D03*
D12*
%TO.P,D17,3,VCC*%
%TO.N,+5V*%
X91079000Y-48006000D03*
%TO.P,D17,6,VSS*%
%TO.N,GND*%
X89809000Y-48006000D03*
%TD*%
%TO.P,D8,1,DOUT*%
%TO.N,Net-(D8-DOUT)*%
X114554000Y-70358000D03*
D13*
%TO.P,D8,2,DIN*%
%TO.N,Net-(D7-DOUT)*%
X110744000Y-70358000D03*
D12*
%TO.P,D8,3,VCC*%
%TO.N,+5V*%
X113284000Y-70358000D03*
%TO.P,D8,6,VSS*%
%TO.N,GND*%
X112014000Y-70358000D03*
%TD*%
%TO.P,D1,1,DOUT*%
%TO.N,Net-(D1-DOUT)*%
X136759000Y-70358000D03*
D13*
%TO.P,D1,2,DIN*%
%TO.N,Net-(A1-D6)*%
X132949000Y-70358000D03*
D12*
%TO.P,D1,3,VCC*%
%TO.N,+5V*%
X135489000Y-70358000D03*
%TO.P,D1,6,VSS*%
%TO.N,GND*%
X134219000Y-70358000D03*
%TD*%
%TO.P,D18,1,DOUT*%
%TO.N,Net-(D18-DOUT)*%
X92349000Y-36830000D03*
D13*
%TO.P,D18,2,DIN*%
%TO.N,Net-(D17-DOUT)*%
X88539000Y-36830000D03*
D12*
%TO.P,D18,3,VCC*%
%TO.N,+5V*%
X91079000Y-36830000D03*
%TO.P,D18,6,VSS*%
%TO.N,GND*%
X89809000Y-36830000D03*
%TD*%
D16*
%TO.P,SW1,1,1*%
%TO.N,GND*%
X143510000Y-68326000D03*
X150010000Y-68326000D03*
%TO.P,SW1,2,2*%
%TO.N,Net-(A1-D7)*%
X143510000Y-72826000D03*
X150010000Y-72826000D03*
%TD*%
D12*
%TO.P,D14,1,DOUT*%
%TO.N,Net-(D14-DOUT)*%
X105049000Y-48006000D03*
D13*
%TO.P,D14,2,DIN*%
%TO.N,Net-(D13-DOUT)*%
X101239000Y-48006000D03*
D12*
%TO.P,D14,3,VCC*%
%TO.N,+5V*%
X103779000Y-48006000D03*
%TO.P,D14,6,VSS*%
%TO.N,GND*%
X102509000Y-48006000D03*
%TD*%
%TO.P,D2,1,DOUT*%
%TO.N,Net-(D2-DOUT)*%
X136759000Y-59182000D03*
D13*
%TO.P,D2,2,DIN*%
%TO.N,Net-(D1-DOUT)*%
X132949000Y-59182000D03*
D12*
%TO.P,D2,3,VCC*%
%TO.N,+5V*%
X135489000Y-59182000D03*
%TO.P,D2,6,VSS*%
%TO.N,GND*%
X134219000Y-59182000D03*
%TD*%
%TO.P,D6,1,DOUT*%
%TO.N,Net-(D6-DOUT)*%
X127254000Y-59182000D03*
D13*
%TO.P,D6,2,DIN*%
%TO.N,Net-(D5-DOUT)*%
X123444000Y-59182000D03*
D12*
%TO.P,D6,3,VCC*%
%TO.N,+5V*%
X125984000Y-59182000D03*
%TO.P,D6,6,VSS*%
%TO.N,GND*%
X124714000Y-59182000D03*
%TD*%
%TO.P,D3,1,DOUT*%
%TO.N,Net-(D3-DOUT)*%
X136759000Y-48006000D03*
D13*
%TO.P,D3,2,DIN*%
%TO.N,Net-(D2-DOUT)*%
X132949000Y-48006000D03*
D12*
%TO.P,D3,3,VCC*%
%TO.N,+5V*%
X135489000Y-48006000D03*
%TO.P,D3,6,VSS*%
%TO.N,GND*%
X134219000Y-48006000D03*
%TD*%
%TO.P,D4,1,DOUT*%
%TO.N,Net-(D4-DOUT)*%
X136759000Y-36830000D03*
D13*
%TO.P,D4,2,DIN*%
%TO.N,Net-(D3-DOUT)*%
X132949000Y-36830000D03*
D12*
%TO.P,D4,3,VCC*%
%TO.N,+5V*%
X135489000Y-36830000D03*
%TO.P,D4,6,VSS*%
%TO.N,GND*%
X134219000Y-36830000D03*
%TD*%
%TO.P,D11,1,DOUT*%
%TO.N,Net-(D11-DOUT)*%
X114554000Y-36830000D03*
D13*
%TO.P,D11,2,DIN*%
%TO.N,Net-(D10-DOUT)*%
X110744000Y-36830000D03*
D12*
%TO.P,D11,3,VCC*%
%TO.N,+5V*%
X113284000Y-36830000D03*
%TO.P,D11,6,VSS*%
%TO.N,GND*%
X112014000Y-36830000D03*
%TD*%
%TO.P,D16,1,DOUT*%
%TO.N,Net-(D16-DOUT)*%
X92352000Y-59182000D03*
D13*
%TO.P,D16,2,DIN*%
%TO.N,Net-(D15-DOUT)*%
X88542000Y-59182000D03*
D12*
%TO.P,D16,3,VCC*%
%TO.N,+5V*%
X91082000Y-59182000D03*
%TO.P,D16,6,VSS*%
%TO.N,GND*%
X89812000Y-59182000D03*
%TD*%
%TO.P,D20,1,DOUT*%
%TO.N,unconnected-(D20-DOUT-Pad1)*%
X82852000Y-59182000D03*
D13*
%TO.P,D20,2,DIN*%
%TO.N,Net-(D19-DOUT)*%
X79042000Y-59182000D03*
D12*
%TO.P,D20,3,VCC*%
%TO.N,+5V*%
X81582000Y-59182000D03*
%TO.P,D20,6,VSS*%
%TO.N,GND*%
X80312000Y-59182000D03*
%TD*%
%TO.P,D12,1,DOUT*%
%TO.N,Net-(D12-DOUT)*%
X105052000Y-70358000D03*
D13*
%TO.P,D12,2,DIN*%
%TO.N,Net-(D11-DOUT)*%
X101242000Y-70358000D03*
D12*
%TO.P,D12,3,VCC*%
%TO.N,+5V*%
X103782000Y-70358000D03*
%TO.P,D12,6,VSS*%
%TO.N,GND*%
X102512000Y-70358000D03*
%TD*%
%TO.P,D5,1,DOUT*%
%TO.N,Net-(D5-DOUT)*%
X127254000Y-70358000D03*
D13*
%TO.P,D5,2,DIN*%
%TO.N,Net-(D4-DOUT)*%
X123444000Y-70358000D03*
D12*
%TO.P,D5,3,VCC*%
%TO.N,+5V*%
X125984000Y-70358000D03*
%TO.P,D5,6,VSS*%
%TO.N,GND*%
X124714000Y-70358000D03*
%TD*%
%TO.P,D15,1,DOUT*%
%TO.N,Net-(D15-DOUT)*%
X92352000Y-70358000D03*
D13*
%TO.P,D15,2,DIN*%
%TO.N,Net-(D14-DOUT)*%
X88542000Y-70358000D03*
D12*
%TO.P,D15,3,VCC*%
%TO.N,+5V*%
X91082000Y-70358000D03*
%TO.P,D15,6,VSS*%
%TO.N,GND*%
X89812000Y-70358000D03*
%TD*%
%TO.P,D13,1,DOUT*%
%TO.N,Net-(D13-DOUT)*%
X105052000Y-59182000D03*
D13*
%TO.P,D13,2,DIN*%
%TO.N,Net-(D12-DOUT)*%
X101242000Y-59182000D03*
D12*
%TO.P,D13,3,VCC*%
%TO.N,+5V*%
X103782000Y-59182000D03*
%TO.P,D13,6,VSS*%
%TO.N,GND*%
X102512000Y-59182000D03*
%TD*%
%TO.P,D9,1,DOUT*%
%TO.N,Net-(D10-DIN)*%
X114554000Y-59182000D03*
D13*
%TO.P,D9,2,DIN*%
%TO.N,Net-(D8-DOUT)*%
X110744000Y-59182000D03*
D12*
%TO.P,D9,3,VCC*%
%TO.N,+5V*%
X113284000Y-59182000D03*
%TO.P,D9,6,VSS*%
%TO.N,GND*%
X112014000Y-59182000D03*
%TD*%
D10*
%TO.P,J1,1,Pin_1*%
%TO.N,+5V*%
X125222000Y-92964000D03*
D11*
%TO.P,J1,2,Pin_2*%
%TO.N,Net-(A1-A4)*%
X125222000Y-90424000D03*
%TO.P,J1,3,Pin_3*%
%TO.N,Net-(A1-A5)*%
X125222000Y-87884000D03*
%TO.P,J1,4,Pin_4*%
%TO.N,unconnected-(J1-Pin_4-Pad4)*%
X125222000Y-85344000D03*
%TO.P,J1,5,Pin_5*%
%TO.N,GND*%
X125222000Y-82804000D03*
%TD*%
D12*
%TO.P,D10,1,DOUT*%
%TO.N,Net-(D10-DOUT)*%
X114554000Y-48006000D03*
D13*
%TO.P,D10,2,DIN*%
%TO.N,Net-(D10-DIN)*%
X110744000Y-48006000D03*
D12*
%TO.P,D10,3,VCC*%
%TO.N,+5V*%
X113284000Y-48006000D03*
%TO.P,D10,6,VSS*%
%TO.N,GND*%
X112014000Y-48006000D03*
%TD*%
%TO.P,D19,1,DOUT*%
%TO.N,Net-(D19-DOUT)*%
X82852000Y-70358000D03*
D13*
%TO.P,D19,2,DIN*%
%TO.N,Net-(D18-DOUT)*%
X79042000Y-70358000D03*
D12*
%TO.P,D19,3,VCC*%
%TO.N,+5V*%
X81582000Y-70358000D03*
%TO.P,D19,6,VSS*%
%TO.N,GND*%
X80312000Y-70358000D03*
%TD*%
D17*
%TO.N,GND*%
X122174000Y-80264000D02*
X121920000Y-80264000D01*
X139700000Y-80264000D02*
X122174000Y-80264000D01*
X122174000Y-80264000D02*
X122682000Y-80264000D01*
X122682000Y-80264000D02*
X125222000Y-82804000D01*
X142240000Y-82804000D02*
X139700000Y-80264000D01*
X121920000Y-80264000D02*
X115316000Y-86868000D01*
X115316000Y-86868000D02*
X115316000Y-93218000D01*
%TO.N,+5V*%
X123444000Y-96520000D02*
X138938000Y-96520000D01*
X121158000Y-96520000D02*
X123444000Y-96520000D01*
X123444000Y-96520000D02*
X125222000Y-94742000D01*
X125222000Y-94742000D02*
X125222000Y-92964000D01*
X117856000Y-93218000D02*
X121158000Y-96520000D01*
X138938000Y-96520000D02*
X142240000Y-93218000D01*
X142240000Y-93218000D02*
X142240000Y-92964000D01*
X138430000Y-73660000D02*
X143415000Y-78645000D01*
X143415000Y-78645000D02*
X143415000Y-91789000D01*
X143415000Y-91789000D02*
X142240000Y-92964000D01*
%TO.N,GND*%
X136398000Y-75184000D02*
X136652000Y-75184000D01*
X136652000Y-75184000D02*
X142240000Y-80772000D01*
X142240000Y-80772000D02*
X142240000Y-82804000D01*
X131699000Y-35941000D02*
X132588000Y-35052000D01*
X89812000Y-70358000D02*
X89812000Y-70723000D01*
X136398000Y-75184000D02*
X134620000Y-75184000D01*
X99568000Y-72136000D02*
X99568000Y-66294000D01*
X124460000Y-75184000D02*
X136398000Y-75184000D01*
X112014000Y-68834000D02*
X112014000Y-70358000D01*
X102512000Y-69238000D02*
X102512000Y-70358000D01*
X76708000Y-73660000D02*
X76708000Y-67310000D01*
X89181000Y-35052000D02*
X89809000Y-35680000D01*
X86868000Y-55088000D02*
X89812000Y-58032000D01*
X86868000Y-67818000D02*
X86868000Y-66040000D01*
X102509000Y-46856000D02*
X102509000Y-48006000D01*
X133591000Y-35052000D02*
X134219000Y-35680000D01*
X109728000Y-66548000D02*
X112014000Y-68834000D01*
X131699000Y-44704000D02*
X134219000Y-47224000D01*
X122428000Y-55626000D02*
X124714000Y-57912000D01*
X86868000Y-36068000D02*
X87884000Y-35052000D01*
X132575000Y-67564000D02*
X134219000Y-69208000D01*
X131699000Y-72263000D02*
X131699000Y-67564000D01*
X86868000Y-43915000D02*
X89809000Y-46856000D01*
X102616000Y-75184000D02*
X88900000Y-75184000D01*
X102616000Y-75184000D02*
X99568000Y-72136000D01*
X131699000Y-55118000D02*
X134219000Y-57638000D01*
X132588000Y-35052000D02*
X133591000Y-35052000D01*
X76708000Y-67310000D02*
X76708000Y-57912000D01*
X124714000Y-57912000D02*
X124714000Y-59182000D01*
X134219000Y-69208000D02*
X134219000Y-70358000D01*
X134219000Y-57638000D02*
X134219000Y-59182000D01*
X109728000Y-44450000D02*
X109728000Y-35761000D01*
X122428000Y-46937000D02*
X123137000Y-46228000D01*
X86868000Y-54864000D02*
X86868000Y-43180000D01*
X80312000Y-69208000D02*
X80312000Y-70358000D01*
X122428000Y-55626000D02*
X122428000Y-46937000D01*
X134620000Y-75184000D02*
X131699000Y-72263000D01*
X109728000Y-71427000D02*
X113485000Y-75184000D01*
X99568000Y-66294000D02*
X102512000Y-69238000D01*
X131699000Y-67564000D02*
X131699000Y-61722000D01*
X89812000Y-68984000D02*
X89812000Y-70358000D01*
X124714000Y-69088000D02*
X124714000Y-70358000D01*
X77216000Y-57404000D02*
X79684000Y-57404000D01*
X109728000Y-71427000D02*
X109728000Y-66548000D01*
X131699000Y-50546000D02*
X131699000Y-44704000D01*
X80312000Y-70358000D02*
X80312000Y-70723000D01*
X113538000Y-75184000D02*
X102616000Y-75184000D01*
X89809000Y-46856000D02*
X89809000Y-48006000D01*
X99568000Y-47244000D02*
X100330000Y-46482000D01*
X76708000Y-67310000D02*
X78414000Y-67310000D01*
X112014000Y-70723000D02*
X112014000Y-70358000D01*
X87884000Y-35052000D02*
X89181000Y-35052000D01*
X102512000Y-70723000D02*
X102512000Y-70358000D01*
X78232000Y-75184000D02*
X76708000Y-73660000D01*
X122809000Y-73533000D02*
X124460000Y-75184000D01*
X113538000Y-75184000D02*
X113485000Y-75184000D01*
X123137000Y-46228000D02*
X124086000Y-46228000D01*
X131699000Y-61722000D02*
X131699000Y-55118000D01*
X80312000Y-58032000D02*
X80312000Y-59182000D01*
X134219000Y-47224000D02*
X134219000Y-48006000D01*
X124460000Y-75184000D02*
X113538000Y-75184000D01*
X122428000Y-66802000D02*
X124714000Y-69088000D01*
X86868000Y-66040000D02*
X89812000Y-68984000D01*
X78414000Y-67310000D02*
X80312000Y-69208000D01*
X86868000Y-43180000D02*
X86868000Y-43915000D01*
X88900000Y-75184000D02*
X86868000Y-73152000D01*
X100330000Y-46482000D02*
X102135000Y-46482000D01*
X109728000Y-56134000D02*
X109728000Y-44450000D01*
X102135000Y-46482000D02*
X102509000Y-46856000D01*
X86868000Y-73152000D02*
X86868000Y-67818000D01*
X89812000Y-48009000D02*
X89809000Y-48006000D01*
X112014000Y-46736000D02*
X112014000Y-48006000D01*
X111640000Y-35306000D02*
X112014000Y-35680000D01*
X86868000Y-54864000D02*
X86868000Y-55088000D01*
X86868000Y-66040000D02*
X86868000Y-54864000D01*
X112014000Y-58420000D02*
X112014000Y-59182000D01*
X109728000Y-35761000D02*
X110183000Y-35306000D01*
X110183000Y-35306000D02*
X111640000Y-35306000D01*
X99568000Y-66294000D02*
X99568000Y-55626000D01*
X109728000Y-66548000D02*
X109728000Y-56134000D01*
X102512000Y-58032000D02*
X102512000Y-59182000D01*
X86868000Y-43180000D02*
X86868000Y-36068000D01*
X88900000Y-75184000D02*
X78232000Y-75184000D01*
X112014000Y-35680000D02*
X112014000Y-36830000D01*
X122428000Y-66802000D02*
X122428000Y-55626000D01*
X131699000Y-44704000D02*
X131699000Y-35941000D01*
X100106000Y-55626000D02*
X102512000Y-58032000D01*
X76708000Y-57912000D02*
X77216000Y-57404000D01*
X102512000Y-48009000D02*
X102509000Y-48006000D01*
X122428000Y-73152000D02*
X122428000Y-66802000D01*
X89809000Y-35680000D02*
X89809000Y-36830000D01*
X131699000Y-67564000D02*
X132575000Y-67564000D01*
X99568000Y-55626000D02*
X99568000Y-47244000D01*
X134219000Y-35680000D02*
X134219000Y-36830000D01*
X89812000Y-58032000D02*
X89812000Y-59182000D01*
X131699000Y-55118000D02*
X131699000Y-50546000D01*
X122809000Y-73533000D02*
X122428000Y-73152000D01*
X124714000Y-46856000D02*
X124714000Y-48006000D01*
X109728000Y-44450000D02*
X112014000Y-46736000D01*
X124086000Y-46228000D02*
X124714000Y-46856000D01*
X79684000Y-57404000D02*
X80312000Y-58032000D01*
X99568000Y-55626000D02*
X100106000Y-55626000D01*
X109728000Y-56134000D02*
X112014000Y-58420000D01*
%TO.N,+5V*%
X92705224Y-49231000D02*
X91939000Y-49231000D01*
X83865000Y-60407000D02*
X85344000Y-58928000D01*
X135489000Y-70358000D02*
X135489000Y-70723000D01*
X114910224Y-49231000D02*
X114144000Y-49231000D01*
X138430000Y-70866000D02*
X138430000Y-73660000D01*
X120453224Y-32512000D02*
X121158000Y-32512000D01*
X138430000Y-48514000D02*
X138430000Y-51562000D01*
X98248224Y-32512000D02*
X99314000Y-32512000D01*
X138430000Y-62484000D02*
X138430000Y-70866000D01*
X114910224Y-60407000D02*
X114144000Y-60407000D01*
X103782000Y-48009000D02*
X103779000Y-48006000D01*
X136349000Y-49231000D02*
X137713000Y-49231000D01*
X91079000Y-48371000D02*
X91079000Y-48006000D01*
X99314000Y-32512000D02*
X87376000Y-32512000D01*
X116840000Y-36125224D02*
X116840000Y-47301224D01*
X113284000Y-37195000D02*
X113284000Y-36830000D01*
X135489000Y-36830000D02*
X135489000Y-36465000D01*
X135489000Y-48006000D02*
X135489000Y-48621000D01*
X137713000Y-49231000D02*
X138430000Y-48514000D01*
X107442000Y-47194224D02*
X105360224Y-49276000D01*
X129286000Y-66744776D02*
X125984000Y-70046776D01*
X81582000Y-71422000D02*
X81582000Y-70358000D01*
X85344000Y-55108776D02*
X85344000Y-58928000D01*
X91942000Y-60407000D02*
X91082000Y-59547000D01*
X129286000Y-48514000D02*
X129286000Y-58731224D01*
X116840000Y-58166000D02*
X116840000Y-58477224D01*
X138426000Y-73660000D02*
X138430000Y-73660000D01*
X107442000Y-34544000D02*
X109474000Y-32512000D01*
X137459000Y-60407000D02*
X138430000Y-59436000D01*
X121158000Y-32512000D02*
X109474000Y-32512000D01*
X138430000Y-51562000D02*
X138430000Y-59436000D01*
X129286000Y-35560000D02*
X132334000Y-32512000D01*
X91082000Y-70723000D02*
X91082000Y-70358000D01*
X135489000Y-59547000D02*
X136349000Y-60407000D01*
X125984000Y-48514000D02*
X125984000Y-48006000D01*
X81582000Y-59182000D02*
X81582000Y-59547000D01*
X109474000Y-32512000D02*
X99314000Y-32512000D01*
X85344000Y-34544000D02*
X85344000Y-37592000D01*
X113284000Y-70723000D02*
X113284000Y-70358000D01*
X107442000Y-58166000D02*
X107442000Y-58373224D01*
X104684000Y-49276000D02*
X103779000Y-48371000D01*
X103782000Y-69993000D02*
X103782000Y-70358000D01*
X91079000Y-36830000D02*
X91079000Y-36465000D01*
X114697000Y-72136000D02*
X113284000Y-70723000D01*
X107442000Y-58166000D02*
X107442000Y-66333000D01*
X129286000Y-58731224D02*
X129286000Y-66744776D01*
X137414000Y-32512000D02*
X132334000Y-32512000D01*
X85344000Y-58928000D02*
X85344000Y-69447224D01*
X116840000Y-36125224D02*
X120453224Y-32512000D01*
X94234000Y-70612000D02*
X93218000Y-71628000D01*
X105360224Y-49276000D02*
X104684000Y-49276000D01*
X135489000Y-59182000D02*
X135489000Y-59547000D01*
X94234000Y-47702224D02*
X94234000Y-58881224D01*
X125984000Y-70046776D02*
X125984000Y-70358000D01*
X82042000Y-71882000D02*
X81582000Y-71422000D01*
X82442000Y-60407000D02*
X83865000Y-60407000D01*
X135489000Y-48006000D02*
X135489000Y-48371000D01*
X94234000Y-58881224D02*
X92708224Y-60407000D01*
X94234000Y-47702224D02*
X92705224Y-49231000D01*
X138430000Y-36919776D02*
X138430000Y-40132000D01*
X92660224Y-38100000D02*
X91984000Y-38100000D01*
X135489000Y-48371000D02*
X136349000Y-49231000D01*
X94234000Y-58881224D02*
X94234000Y-70612000D01*
X93218000Y-71628000D02*
X91987000Y-71628000D01*
X116840000Y-36125224D02*
X114910224Y-38055000D01*
X136349000Y-71583000D02*
X137713000Y-71583000D01*
X85344000Y-37592000D02*
X85344000Y-55108776D01*
X103779000Y-48371000D02*
X103779000Y-48006000D01*
X107442000Y-47194224D02*
X107442000Y-34544000D01*
X135489000Y-70723000D02*
X136349000Y-71583000D01*
X81582000Y-70046776D02*
X81582000Y-70358000D01*
X129286000Y-48514000D02*
X129286000Y-35560000D01*
X116840000Y-58477224D02*
X114910224Y-60407000D01*
X91939000Y-49231000D02*
X91079000Y-48371000D01*
X137713000Y-71583000D02*
X138430000Y-70866000D01*
X94234000Y-36526224D02*
X94234000Y-47702224D01*
X126701000Y-60407000D02*
X125984000Y-59690000D01*
X138430000Y-36919776D02*
X138430000Y-33528000D01*
X87376000Y-32512000D02*
X85344000Y-34544000D01*
X94234000Y-36526224D02*
X98248224Y-32512000D01*
X116840000Y-47301224D02*
X114910224Y-49231000D01*
X128569000Y-49231000D02*
X126701000Y-49231000D01*
X81582000Y-58870776D02*
X81582000Y-59182000D01*
X116840000Y-47301224D02*
X116840000Y-58166000D01*
X81582000Y-59547000D02*
X82442000Y-60407000D01*
X125984000Y-59690000D02*
X125984000Y-59182000D01*
X116840000Y-58166000D02*
X116840000Y-70612000D01*
X126701000Y-49231000D02*
X125984000Y-48514000D01*
X138430000Y-40132000D02*
X138430000Y-48514000D01*
X129286000Y-48514000D02*
X128569000Y-49231000D01*
X94234000Y-36526224D02*
X92660224Y-38100000D01*
X107442000Y-47194224D02*
X107442000Y-58166000D01*
X138426000Y-62484000D02*
X138430000Y-62484000D01*
X113284000Y-36830000D02*
X113284000Y-36465000D01*
X105363224Y-60452000D02*
X104687000Y-60452000D01*
X107442000Y-58373224D02*
X105363224Y-60452000D01*
X135489000Y-36830000D02*
X135489000Y-37195000D01*
X137713000Y-38055000D02*
X138430000Y-37338000D01*
X138430000Y-33528000D02*
X137414000Y-32512000D01*
X113284000Y-59547000D02*
X113284000Y-59182000D01*
X114144000Y-38055000D02*
X113284000Y-37195000D01*
X103782000Y-59547000D02*
X103782000Y-59182000D01*
X114144000Y-60407000D02*
X113284000Y-59547000D01*
X113284000Y-48371000D02*
X113284000Y-48006000D01*
X107442000Y-66333000D02*
X103782000Y-69993000D01*
X114910224Y-38055000D02*
X114144000Y-38055000D01*
X115316000Y-72136000D02*
X114697000Y-72136000D01*
X91082000Y-48009000D02*
X91079000Y-48006000D01*
X114144000Y-49231000D02*
X113284000Y-48371000D01*
X82909224Y-71882000D02*
X82042000Y-71882000D01*
X138430000Y-59436000D02*
X138430000Y-62484000D01*
X136349000Y-60407000D02*
X137459000Y-60407000D01*
X129286000Y-58731224D02*
X127610224Y-60407000D01*
X132334000Y-32512000D02*
X121158000Y-32512000D01*
X104687000Y-60452000D02*
X103782000Y-59547000D01*
X91082000Y-59547000D02*
X91082000Y-59182000D01*
X91987000Y-71628000D02*
X91082000Y-70723000D01*
X127610224Y-60407000D02*
X126701000Y-60407000D01*
X135489000Y-37195000D02*
X136349000Y-38055000D01*
X92708224Y-60407000D02*
X91942000Y-60407000D01*
X116840000Y-70612000D02*
X115316000Y-72136000D01*
X91984000Y-38100000D02*
X91079000Y-37195000D01*
X91079000Y-37195000D02*
X91079000Y-36830000D01*
X136349000Y-38055000D02*
X137713000Y-38055000D01*
X85344000Y-69447224D02*
X82909224Y-71882000D01*
%TD*%
M02*
