M48
; DRILL file {KiCad 7.0.10-1.fc39} date So 18 Feb 2024 17:05:59 CET
; FORMAT={-:-/ absolute / inch / decimal}
; #@! TF.CreationDate,2024-02-18T17:05:59+01:00
; #@! TF.GenerationSoftware,Kicad,Pcbnew,7.0.10-1.fc39
; #@! TF.FileFunction,Plated,1,2,PTH
FMAT,2
INCH
; #@! TA.AperFunction,Plated,PTH,ComponentDrill
T1C0.0354
; #@! TA.AperFunction,Plated,PTH,ComponentDrill
T2C0.0394
; #@! TA.AperFunction,Plated,PTH,ComponentDrill
T3C0.0433
%
G90
G05
T1
X3.1119Y-2.33
X3.1119Y-2.77
X3.1619Y-2.33
X3.1619Y-2.77
X3.2119Y-2.33
X3.2119Y-2.77
X3.2619Y-2.33
X3.2619Y-2.77
X3.4858Y-1.45
X3.4858Y-1.89
X3.4859Y-2.33
X3.4859Y-2.77
X3.5358Y-1.45
X3.5358Y-1.89
X3.5359Y-2.33
X3.5359Y-2.77
X3.5858Y-1.45
X3.5858Y-1.89
X3.5859Y-2.33
X3.5859Y-2.77
X3.6358Y-1.45
X3.6358Y-1.89
X3.6359Y-2.33
X3.6359Y-2.77
X3.9858Y-1.89
X3.9859Y-2.33
X3.9859Y-2.77
X4.0358Y-1.89
X4.0359Y-2.33
X4.0359Y-2.77
X4.0858Y-1.89
X4.0859Y-2.33
X4.0859Y-2.77
X4.1358Y-1.89
X4.1359Y-2.33
X4.1359Y-2.77
X4.36Y-1.45
X4.36Y-1.89
X4.36Y-2.33
X4.36Y-2.77
X4.41Y-1.45
X4.41Y-1.89
X4.41Y-2.33
X4.41Y-2.77
X4.46Y-1.45
X4.46Y-1.89
X4.46Y-2.33
X4.46Y-2.77
X4.51Y-1.45
X4.51Y-1.89
X4.51Y-2.33
X4.51Y-2.77
X4.86Y-1.89
X4.86Y-2.33
X4.86Y-2.77
X4.91Y-1.89
X4.91Y-2.33
X4.91Y-2.77
X4.96Y-1.89
X4.96Y-2.33
X4.96Y-2.77
X5.01Y-1.89
X5.01Y-2.33
X5.01Y-2.77
X5.2342Y-1.45
X5.2342Y-1.89
X5.2342Y-2.33
X5.2342Y-2.77
X5.2842Y-1.45
X5.2842Y-1.89
X5.2842Y-2.33
X5.2842Y-2.77
X5.3342Y-1.45
X5.3342Y-1.89
X5.3342Y-2.33
X5.3342Y-2.77
X5.3842Y-1.45
X5.3842Y-1.89
X5.3842Y-2.33
X5.3842Y-2.77
T2
X3.24Y-3.07
X3.24Y-3.67
X3.34Y-3.07
X3.34Y-3.67
X3.44Y-3.07
X3.44Y-3.67
X3.54Y-3.07
X3.54Y-3.67
X3.64Y-3.07
X3.64Y-3.67
X3.74Y-3.07
X3.74Y-3.67
X3.84Y-3.07
X3.84Y-3.67
X3.94Y-3.07
X3.94Y-3.67
X4.04Y-3.07
X4.04Y-3.67
X4.14Y-3.07
X4.14Y-3.67
X4.24Y-3.07
X4.24Y-3.67
X4.34Y-3.07
X4.34Y-3.67
X4.44Y-3.07
X4.44Y-3.67
X4.54Y-3.07
X4.54Y-3.67
X4.64Y-3.07
X4.64Y-3.67
X4.93Y-3.26
X4.93Y-3.36
X4.93Y-3.46
X4.93Y-3.56
X4.93Y-3.66
X5.6Y-3.26
X5.6Y-3.36
X5.6Y-3.46
X5.6Y-3.56
X5.6Y-3.66
T3
X5.65Y-2.69
X5.65Y-2.8672
X5.9059Y-2.69
X5.9059Y-2.8672
M30
