%TF.GenerationSoftware,KiCad,Pcbnew,7.0.10-1.fc39*%
%TF.CreationDate,2024-02-18T17:05:32+01:00*%
%TF.ProjectId,BinaryClock,42696e61-7279-4436-9c6f-636b2e6b6963,rev?*%
%TF.SameCoordinates,Original*%
%TF.FileFunction,Soldermask,Bot*%
%TF.FilePolarity,Negative*%
%FSLAX46Y46*%
G04 Gerber Fmt 4.6, Leading zero omitted, Abs format (unit mm)*
G04 Created by KiCad (PCBNEW 7.0.10-1.fc39) date 2024-02-18 17:05:32*
%MOMM*%
%LPD*%
G01*
G04 APERTURE LIST*
%ADD10R,1.700000X1.700000*%
%ADD11O,1.700000X1.700000*%
%ADD12O,1.070000X1.800000*%
%ADD13R,1.070000X1.800000*%
%ADD14R,1.600000X1.600000*%
%ADD15O,1.600000X1.600000*%
%ADD16C,2.000000*%
%ADD17C,3.200000*%
G04 APERTURE END LIST*
D10*
%TO.C,J2*%
X142240000Y-92964000D03*
D11*
X142240000Y-90424000D03*
X142240000Y-87884000D03*
X142240000Y-85344000D03*
X142240000Y-82804000D03*
%TD*%
D12*
%TO.C,D7*%
X127254000Y-48006000D03*
D13*
X123444000Y-48006000D03*
D12*
X125984000Y-48006000D03*
X124714000Y-48006000D03*
%TD*%
D14*
%TO.C,A1*%
X117856000Y-77978000D03*
D15*
X115316000Y-77978000D03*
X112776000Y-77978000D03*
X110236000Y-77978000D03*
X107696000Y-77978000D03*
X105156000Y-77978000D03*
X102616000Y-77978000D03*
X100076000Y-77978000D03*
X97536000Y-77978000D03*
X94996000Y-77978000D03*
X92456000Y-77978000D03*
X89916000Y-77978000D03*
X87376000Y-77978000D03*
X84836000Y-77978000D03*
X82296000Y-77978000D03*
X82296000Y-93218000D03*
X84836000Y-93218000D03*
X87376000Y-93218000D03*
X89916000Y-93218000D03*
X92456000Y-93218000D03*
X94996000Y-93218000D03*
X97536000Y-93218000D03*
X100076000Y-93218000D03*
X102616000Y-93218000D03*
X105156000Y-93218000D03*
X107696000Y-93218000D03*
X110236000Y-93218000D03*
X112776000Y-93218000D03*
X115316000Y-93218000D03*
X117856000Y-93218000D03*
%TD*%
D12*
%TO.C,D17*%
X92349000Y-48006000D03*
D13*
X88539000Y-48006000D03*
D12*
X91079000Y-48006000D03*
X89809000Y-48006000D03*
%TD*%
%TO.C,D8*%
X114554000Y-70358000D03*
D13*
X110744000Y-70358000D03*
D12*
X113284000Y-70358000D03*
X112014000Y-70358000D03*
%TD*%
%TO.C,D1*%
X136759000Y-70358000D03*
D13*
X132949000Y-70358000D03*
D12*
X135489000Y-70358000D03*
X134219000Y-70358000D03*
%TD*%
%TO.C,D18*%
X92349000Y-36830000D03*
D13*
X88539000Y-36830000D03*
D12*
X91079000Y-36830000D03*
X89809000Y-36830000D03*
%TD*%
D16*
%TO.C,SW1*%
X143510000Y-68326000D03*
X150010000Y-68326000D03*
X143510000Y-72826000D03*
X150010000Y-72826000D03*
%TD*%
D17*
%TO.C,REF\u002A\u002A*%
X81280000Y-99060000D03*
%TD*%
D12*
%TO.C,D14*%
X105049000Y-48006000D03*
D13*
X101239000Y-48006000D03*
D12*
X103779000Y-48006000D03*
X102509000Y-48006000D03*
%TD*%
%TO.C,D2*%
X136759000Y-59182000D03*
D13*
X132949000Y-59182000D03*
D12*
X135489000Y-59182000D03*
X134219000Y-59182000D03*
%TD*%
D17*
%TO.C,REF\u002A\u002A*%
X149860000Y-33020000D03*
%TD*%
D12*
%TO.C,D6*%
X127254000Y-59182000D03*
D13*
X123444000Y-59182000D03*
D12*
X125984000Y-59182000D03*
X124714000Y-59182000D03*
%TD*%
%TO.C,D3*%
X136759000Y-48006000D03*
D13*
X132949000Y-48006000D03*
D12*
X135489000Y-48006000D03*
X134219000Y-48006000D03*
%TD*%
%TO.C,D4*%
X136759000Y-36830000D03*
D13*
X132949000Y-36830000D03*
D12*
X135489000Y-36830000D03*
X134219000Y-36830000D03*
%TD*%
%TO.C,D11*%
X114554000Y-36830000D03*
D13*
X110744000Y-36830000D03*
D12*
X113284000Y-36830000D03*
X112014000Y-36830000D03*
%TD*%
%TO.C,D16*%
X92352000Y-59182000D03*
D13*
X88542000Y-59182000D03*
D12*
X91082000Y-59182000D03*
X89812000Y-59182000D03*
%TD*%
%TO.C,D20*%
X82852000Y-59182000D03*
D13*
X79042000Y-59182000D03*
D12*
X81582000Y-59182000D03*
X80312000Y-59182000D03*
%TD*%
%TO.C,D12*%
X105052000Y-70358000D03*
D13*
X101242000Y-70358000D03*
D12*
X103782000Y-70358000D03*
X102512000Y-70358000D03*
%TD*%
%TO.C,D5*%
X127254000Y-70358000D03*
D13*
X123444000Y-70358000D03*
D12*
X125984000Y-70358000D03*
X124714000Y-70358000D03*
%TD*%
D17*
%TO.C,REF\u002A\u002A*%
X81280000Y-33020000D03*
%TD*%
D12*
%TO.C,D15*%
X92352000Y-70358000D03*
D13*
X88542000Y-70358000D03*
D12*
X91082000Y-70358000D03*
X89812000Y-70358000D03*
%TD*%
%TO.C,D13*%
X105052000Y-59182000D03*
D13*
X101242000Y-59182000D03*
D12*
X103782000Y-59182000D03*
X102512000Y-59182000D03*
%TD*%
%TO.C,D9*%
X114554000Y-59182000D03*
D13*
X110744000Y-59182000D03*
D12*
X113284000Y-59182000D03*
X112014000Y-59182000D03*
%TD*%
D17*
%TO.C,REF\u002A\u002A*%
X149860000Y-99060000D03*
%TD*%
D10*
%TO.C,J1*%
X125222000Y-92964000D03*
D11*
X125222000Y-90424000D03*
X125222000Y-87884000D03*
X125222000Y-85344000D03*
X125222000Y-82804000D03*
%TD*%
D12*
%TO.C,D10*%
X114554000Y-48006000D03*
D13*
X110744000Y-48006000D03*
D12*
X113284000Y-48006000D03*
X112014000Y-48006000D03*
%TD*%
%TO.C,D19*%
X82852000Y-70358000D03*
D13*
X79042000Y-70358000D03*
D12*
X81582000Y-70358000D03*
X80312000Y-70358000D03*
%TD*%
M02*
